<svg xmlns="http://www.w3.org/2000/svg" width="46.518" height="61.19" viewBox="0 0 46.518 61.19">
  <g id="clear-audio-icon" transform="translate(-85.373 0)">
    <path id="Path_35748" data-name="Path 35748" d="M167.77,55.017h-7.189V47.64a11.041,11.041,0,0,0,7.677-10.7v-2.42a1.749,1.749,0,0,0,1.468-1.764V30.235a1.749,1.749,0,0,0-1.468-1.764V16.2a.847.847,0,1,0-1.691,0V28.455H149.006V11.1a8.8,8.8,0,1,1,17.562,0v4.963a.847.847,0,1,0,1.691,0V11.1c0-6.123-4.7-11.1-10.472-11.1s-10.472,4.981-10.472,11.1V28.471a1.749,1.749,0,0,0-1.468,1.764v2.518a1.749,1.749,0,0,0,1.468,1.764v2.42a11.791,11.791,0,0,0,.3,2.664c.112.481.881.623,1.642,1.786s.112-1.734,0-2.215a9.894,9.894,0,0,1-.254-2.235v-2.4h17.562v2.4a9.068,9.068,0,0,1-8.781,9.311A8.558,8.558,0,0,1,150.74,42.5c-1.42-2.868-2.195-3.68-2.982-3.53s1.347,4.2,1.626,4.6a10.537,10.537,0,0,0,5.607,4.067v7.383H147.8a2.569,2.569,0,0,0-2.487,2.638v1.828a1.663,1.663,0,0,0,1.61,1.707h14.4a.9.9,0,0,0,0-1.793H147.006V57.655a.822.822,0,0,1,.8-.845H167.77a.823.823,0,0,1,.8.845V59.4h-7.309a.9.9,0,0,0,0,1.793h7.39a1.663,1.663,0,0,0,1.61-1.707V57.655a2.569,2.569,0,0,0-2.487-2.638ZM147.537,32.74V30.249h20.5V32.74ZM158.89,55.017h-2.208V47.978a9.753,9.753,0,0,0,1.1.064,9.943,9.943,0,0,0,1.1-.062v7.036Z" transform="translate(-49.154)" fill="#32325a"/>
    <path id="Path_35749" data-name="Path 35749" d="M373.557,102.731a1.158,1.158,0,1,0-1.459,1.8,1.2,1.2,0,0,1,.461.926,1.185,1.185,0,0,1-.452.934,1.159,1.159,0,0,0,1.44,1.816,3.491,3.491,0,0,0,.009-5.475Z" transform="translate(-247.745 -90.788)" fill="#7576d2"/>
    <path id="Path_35750" data-name="Path 35750" d="M392.95,79.22a1.159,1.159,0,0,0-1.459,1.8,5.794,5.794,0,0,1,.01,9.122,1.159,1.159,0,0,0,1.44,1.816,8.111,8.111,0,0,0,.01-12.738Z" transform="translate(-264.143 -70.661)" fill="#7576d2"/>
    <path id="Path_35751" data-name="Path 35751" d="M122.224,104.531a1.158,1.158,0,1,0-1.459-1.8,3.491,3.491,0,0,0,.01,5.475,1.159,1.159,0,0,0,1.44-1.816,1.175,1.175,0,0,1,.009-1.859Z" transform="translate(-29.313 -90.788)" fill="#7576d2"/>
    <path id="Path_35752" data-name="Path 35752" d="M93.165,90.144a5.794,5.794,0,0,1,.01-9.122,1.159,1.159,0,0,0-1.459-1.8,8.111,8.111,0,0,0,.01,12.738,1.159,1.159,0,0,0,1.44-1.816Z" transform="translate(-3.259 -70.663)" fill="#7576d2"/>
    <g id="Group_16737" data-name="Group 16737">
      <circle id="Ellipse_382" data-name="Ellipse 382" cx="1.255" cy="1.255" r="1.255" transform="translate(104.928 5.363) rotate(-5.682)" fill="#7576d2"/>
      <circle id="Ellipse_383" data-name="Ellipse 383" cx="1.255" cy="1.255" r="1.255" transform="matrix(0.16, -0.987, 0.987, 0.16, 109.516, 7.543)" fill="#7576d2"/>
      <circle id="Ellipse_384" data-name="Ellipse 384" cx="1.255" cy="1.255" r="1.255" transform="translate(102.714 16.523)" fill="#7576d2"/>
      <circle id="Ellipse_385" data-name="Ellipse 385" cx="1.255" cy="1.255" r="1.255" transform="translate(107.377 16.523)" fill="#7576d2"/>
      <circle id="Ellipse_386" data-name="Ellipse 386" cx="1.255" cy="1.255" r="1.255" transform="translate(112.041 16.523)" fill="#7576d2"/>
      <circle id="Ellipse_387" data-name="Ellipse 387" cx="1.255" cy="1.255" r="1.255" transform="translate(104.96 12.633)" fill="#7576d2"/>
      <circle id="Ellipse_388" data-name="Ellipse 388" cx="1.255" cy="1.255" r="1.255" transform="translate(109.623 12.633)" fill="#7576d2"/>
      <circle id="Ellipse_389" data-name="Ellipse 389" cx="1.255" cy="1.255" r="1.255" transform="translate(113.812 14.59) rotate(-67.486)" fill="#7576d2"/>
      <circle id="Ellipse_390" data-name="Ellipse 390" cx="1.255" cy="1.255" r="1.255" transform="translate(100.194 14.592) rotate(-67.486)" fill="#7576d2"/>
      <circle id="Ellipse_391" data-name="Ellipse 391" cx="1.255" cy="1.255" r="1.255" transform="translate(102.714 24.398)" fill="#7576d2"/>
      <circle id="Ellipse_392" data-name="Ellipse 392" cx="1.255" cy="1.255" r="1.255" transform="translate(107.377 24.398)" fill="#7576d2"/>
      <circle id="Ellipse_393" data-name="Ellipse 393" cx="1.255" cy="1.255" r="1.255" transform="translate(112.041 24.398)" fill="#7576d2"/>
      <circle id="Ellipse_394" data-name="Ellipse 394" cx="1.255" cy="1.255" r="1.255" transform="translate(104.96 20.508)" fill="#7576d2"/>
      <circle id="Ellipse_395" data-name="Ellipse 395" cx="1.255" cy="1.255" r="1.255" transform="translate(109.623 20.508)" fill="#7576d2"/>
      <circle id="Ellipse_396" data-name="Ellipse 396" cx="1.255" cy="1.255" r="1.255" transform="matrix(0.16, -0.987, 0.987, 0.16, 113.998, 22.806)" fill="#7576d2"/>
      <circle id="Ellipse_397" data-name="Ellipse 397" cx="1.255" cy="1.255" r="1.255" transform="translate(100.449 20.629) rotate(-5.682)" fill="#7576d2"/>
      <path id="Path_35753" data-name="Path 35753" d="M208.474,72.193a1.255,1.255,0,1,0,1.255,1.255A1.255,1.255,0,0,0,208.474,72.193Z" transform="translate(-104.505 -62.604)" fill="#7576d2"/>
      <path id="Path_35754" data-name="Path 35754" d="M247.747,72.193A1.255,1.255,0,1,0,249,73.448,1.255,1.255,0,0,0,247.747,72.193Z" transform="translate(-139.115 -62.604)" fill="#7576d2"/>
      <path id="Path_35755" data-name="Path 35755" d="M287.021,74.7a1.255,1.255,0,1,0-1.255-1.255A1.255,1.255,0,0,0,287.021,74.7Z" transform="translate(-173.725 -62.603)" fill="#7576d2"/>
    </g>
  </g>
</svg>
