<svg id="contact-info-icon" xmlns="http://www.w3.org/2000/svg" width="62" height="62" viewBox="0 0 62 62">
  <g id="Ellipse_377" data-name="Ellipse 377" fill="#7576d2" stroke="#fff" stroke-width="2">
    <circle cx="31" cy="31" r="31" stroke="none"/>
    <circle cx="31" cy="31" r="30" fill="none"/>
  </g>
  <g id="contact_3_" data-name="contact (3)" transform="translate(18.298 15.27)">
    <path id="Path_35666" data-name="Path 35666" d="M26.306,13.431a1.5,1.5,0,0,0-2.072,0l-1.721,1.725-6.2-6.207,1.722-1.722a1.466,1.466,0,0,0,0-2.071L13.541.667a1.473,1.473,0,0,0-2.063.009,7.431,7.431,0,0,0-.7,11.019L11.8,12.721H2.143a1.953,1.953,0,0,0-1.95,1.95V25.886a1.953,1.953,0,0,0,1.95,1.95H11.9l2.05,2.681a1.755,1.755,0,0,0,3.107-.669l.46-2.012h1.695a1.959,1.959,0,0,0,1.95-1.94l.023-4.115a7.292,7.292,0,0,0,3.739,1.037,7.739,7.739,0,0,0,5.86-2.835,1.475,1.475,0,0,0,0-2.071ZM16.742,25.886a.975.975,0,0,0-.951.758l-.541,2.362-2.093-2.737a.975.975,0,0,0-.775-.383H2.143V14.671H13.754l5.492,5.492-.032,5.723Zm11.964-6.58a5.357,5.357,0,0,1-7.559,0l-8.991-8.991A5.4,5.4,0,0,1,12.514,2.4l3.794,3.794L14.594,7.907a1.46,1.46,0,0,0-.009,2.075l6.894,6.9h0a1.464,1.464,0,0,0,2.067,0l1.724-1.728,3.794,3.794Z" transform="translate(0 0)" fill="#fff"/>
    <circle id="Ellipse_380" data-name="Ellipse 380" cx="1.184" cy="1.184" r="1.184" transform="translate(4.927 16.386)" fill="#fff"/>
  </g>
</svg>
