<svg xmlns="http://www.w3.org/2000/svg" width="59.931" height="55.247" viewBox="0 0 59.931 55.247">
  <g id="discreet-and-respectful-icon" transform="translate(0 -20.008)">
    <g id="Group_16739" data-name="Group 16739" transform="translate(37.223 41.998)">
      <g id="Group_16738" data-name="Group 16738">
        <path id="Path_35756" data-name="Path 35756" d="M339.538,230.3H321.512v-6.929a12.112,12.112,0,0,1,2.608-7.491l3.876-4.892a2.044,2.044,0,0,1,3.305,2.4l-4.151,6.25a1.17,1.17,0,1,0,1.95,1.3l4.151-6.25a4.386,4.386,0,0,0-7.091-5.15l-3.876,4.892a14.463,14.463,0,0,0-3.114,8.945V230.3A1.171,1.171,0,0,0,318,231.473v8.486a1.171,1.171,0,1,0,2.341,0v-7.316h18.026v7.316a1.171,1.171,0,0,0,2.341,0v-8.486A1.171,1.171,0,0,0,339.538,230.3Z" transform="translate(-318 -207.873)" fill="#32325a"/>
      </g>
    </g>
    <g id="Group_16741" data-name="Group 16741" transform="translate(56.41 59.375)">
      <g id="Group_16740" data-name="Group 16740">
        <path id="Path_35757" data-name="Path 35757" d="M483.918,356.665a1.17,1.17,0,1,0,.343.828A1.179,1.179,0,0,0,483.918,356.665Z" transform="translate(-481.92 -356.322)" fill="#32325a"/>
      </g>
    </g>
    <g id="Group_16743" data-name="Group 16743" transform="translate(41.207 20.008)">
      <g id="Group_16742" data-name="Group 16742" transform="translate(0 0)">
        <path id="Path_35758" data-name="Path 35758" d="M366.985,35.941l-5.338-12.854a5,5,0,1,0-9.209,3.876l5.653,13.254a1.171,1.171,0,0,0,2.153-.918l-5.653-13.254a2.655,2.655,0,1,1,4.894-2.059l5.338,12.854a31.392,31.392,0,0,1,2.412,12.1V64.586a1.171,1.171,0,0,0,2.341,0V48.939A33.722,33.722,0,0,0,366.985,35.941Z" transform="translate(-352.032 -20.008)" fill="#32325a"/>
      </g>
    </g>
    <g id="Group_16745" data-name="Group 16745" transform="translate(42.959 69.285)">
      <g id="Group_16744" data-name="Group 16744">
        <path id="Path_35759" data-name="Path 35759" d="M369.043,441.382l-.009-.01a1.171,1.171,0,0,0-1.727,1.581l.009.01a1.171,1.171,0,0,0,1.727-1.581Z" transform="translate(-367 -440.992)" fill="#32325a"/>
      </g>
    </g>
    <g id="Group_16747" data-name="Group 16747" transform="translate(0 20.008)">
      <g id="Group_16746" data-name="Group 16746" transform="translate(0 0)">
        <path id="Path_35760" data-name="Path 35760" d="M21.538,64.429V57.5a14.462,14.462,0,0,0-3.114-8.945l-3.876-4.892a4.386,4.386,0,0,0-7.091,5.15l4.15,6.25a1.17,1.17,0,1,0,1.95-1.3l-4.15-6.25a2.044,2.044,0,0,1,3.305-2.4l3.876,4.892A12.111,12.111,0,0,1,19.2,57.5v6.929H3.521V48.94a31.393,31.393,0,0,1,2.412-12.1l5.338-12.855a2.655,2.655,0,1,1,4.894,2.059L10.512,39.3a1.17,1.17,0,0,0,2.153.918l5.653-13.254a5,5,0,1,0-9.209-3.876L3.772,35.943a33.723,33.723,0,0,0-2.591,13V64.429h-.01A1.171,1.171,0,0,0,0,65.6v8.486a1.171,1.171,0,0,0,2.341,0V66.77H20.367v7.316a1.171,1.171,0,0,0,2.341,0V65.6A1.17,1.17,0,0,0,21.538,64.429Z" transform="translate(0 -20.009)" fill="#32325a"/>
      </g>
    </g>
    <g id="Group_16749" data-name="Group 16749" transform="translate(14.622 69.285)">
      <g id="Group_16748" data-name="Group 16748">
        <path id="Path_35761" data-name="Path 35761" d="M126.89,441.3a1.17,1.17,0,0,0-1.654.073l-.009.01a1.171,1.171,0,0,0,1.727,1.581l.009-.01A1.171,1.171,0,0,0,126.89,441.3Z" transform="translate(-124.92 -440.992)" fill="#32325a"/>
      </g>
    </g>
    <g id="Group_16751" data-name="Group 16751" transform="translate(17.762 30.66)">
      <g id="Group_16750" data-name="Group 16750" transform="translate(0 0)">
        <path id="Path_35762" data-name="Path 35762" d="M168.587,111.014a7.242,7.242,0,0,0-4.643,1.72,7.242,7.242,0,0,0-4.643-1.72c-4.169,0-7.561,3.662-7.561,8.163,0,2.583,1.983,5.726,5.892,9.343a54.033,54.033,0,0,0,5.653,4.536,1.171,1.171,0,0,0,1.316,0,54.02,54.02,0,0,0,5.653-4.536c3.91-3.617,5.892-6.761,5.892-9.343C176.149,114.676,172.757,111.014,168.587,111.014Zm.1,15.769a53.132,53.132,0,0,1-4.742,3.871,53.067,53.067,0,0,1-4.722-3.852c-3.315-3.067-5.141-5.775-5.141-7.625,0-3.21,2.342-5.822,5.22-5.822a4.935,4.935,0,0,1,3.757,1.782,1.171,1.171,0,0,0,1.771,0,4.935,4.935,0,0,1,3.757-1.782c2.878,0,5.22,2.612,5.22,5.822C173.808,121.023,171.989,123.724,168.686,126.783Z" transform="translate(-151.741 -111.014)" fill="#7576d2"/>
      </g>
    </g>
  </g>
</svg>
