<svg xmlns="http://www.w3.org/2000/svg" width="40" height="40" viewBox="0 0 40 40">
  <g id="flower-icon" transform="translate(-1418 -6847)">
    <circle id="Ellipse_14" data-name="Ellipse 14" cx="20" cy="20" r="20" transform="translate(1418 6847)" fill="#fff" opacity="0.1"/>
    <g id="Group_101" data-name="Group 101" transform="translate(78.146 8.792)">
      <g id="yelp_1_" data-name="yelp (1)" transform="translate(1352 6848.048)">
        <path id="Path_143" data-name="Path 143" d="M134.538,336.421a1.7,1.7,0,0,0-1.152.635l-2.435,2.528a1.535,1.535,0,0,0,.55,2.635l1.651.684a1.985,1.985,0,0,0,.759.161h0a1.521,1.521,0,0,0,1.493-1.635l.065-3.509a1.712,1.712,0,0,0-.36-1.258A.783.783,0,0,0,134.538,336.421Z" transform="translate(-127.312 -323.695)" fill="#fff"/>
        <path id="Path_144" data-name="Path 144" d="M128.261,0a2.138,2.138,0,0,0-.5.062l-2.354.569a1.756,1.756,0,0,0-1.258.993,1.756,1.756,0,0,0,.152,1.6l3.436,5.915c.344.593.695.9,1.041.9h.008a.566.566,0,0,0,.116-.012c.4-.084.627-.532.669-1.332l.355-6.832A1.813,1.813,0,0,0,129.466.5a1.637,1.637,0,0,0-1.205-.5Z" transform="translate(-121.159)" fill="#fff"/>
        <path id="Path_145" data-name="Path 145" d="M291.326,320.716l-3.317-1.147a2.487,2.487,0,0,0-.8-.154.9.9,0,0,0-.838.407,1.5,1.5,0,0,0,.171,1.461l1.652,3.1a1.609,1.609,0,0,0,1.4.946h0a1.7,1.7,0,0,0,1.275-.655l1.161-1.359a1.535,1.535,0,0,0-.707-2.6Z" transform="translate(-277.252 -307.334)" fill="#fff"/>
        <path id="Path_146" data-name="Path 146" d="M298.16,150.849l-.934-1.524a1.637,1.637,0,0,0-1.372-.863,1.666,1.666,0,0,0-1.316.732l-2.115,2.8c-.249.329-.628.958-.373,1.471a1.041,1.041,0,0,0,1.036.5h0a2.966,2.966,0,0,0,.514-.049l3.456-.614a1.535,1.535,0,0,0,1.1-2.454Z" transform="translate(-282.75 -142.846)" fill="#fff"/>
        <path id="Path_147" data-name="Path 147" d="M55.007,224.285c.035-.45-.319-.879-1-1.209l-3.156-1.535a1.93,1.93,0,0,0-.846-.209,1.522,1.522,0,0,0-1.49,1.546l-.14,1.781a1.721,1.721,0,0,0,.4,1.325,1.463,1.463,0,0,0,1.094.455,2.077,2.077,0,0,0,.6-.094l3.358-1.022C54.554,225.1,54.971,224.735,55.007,224.285Z" transform="translate(-48.369 -212.96)" fill="#fff"/>
      </g>
    </g>
  </g>
</svg>
