<svg xmlns="http://www.w3.org/2000/svg" xmlns:xlink="http://www.w3.org/1999/xlink" width="212" height="126" viewBox="0 0 212 126">
  <defs>
    <filter id="Ellipse_33" x="86" y="0" width="126" height="126" filterUnits="userSpaceOnUse">
      <feOffset dy="3" input="SourceAlpha"/>
      <feGaussianBlur stdDeviation="10" result="blur"/>
      <feFlood flood-color="#ededf5"/>
      <feComposite operator="in" in2="blur"/>
      <feComposite in="SourceGraphic"/>
    </filter>
    <filter id="Ellipse_33-2" x="0" y="0" width="126" height="126" filterUnits="userSpaceOnUse">
      <feOffset dy="3" input="SourceAlpha"/>
      <feGaussianBlur stdDeviation="10" result="blur-2"/>
      <feFlood flood-color="#767474" flood-opacity="0.149"/>
      <feComposite operator="in" in2="blur-2"/>
      <feComposite in="SourceGraphic"/>
    </filter>
  </defs>
  <g id="gallery-control-icon" transform="translate(-1513 -5039)">
    <g id="Next_page_" data-name="Next page " transform="translate(1629.078 5066)">
      <g transform="matrix(1, 0, 0, 1, -116.08, -27)" filter="url(#Ellipse_33)">
        <circle id="Ellipse_33-3" data-name="Ellipse 33" cx="33" cy="33" r="33" transform="translate(116 27)" fill="#fff"/>
      </g>
      <g id="right-arrow_1_" data-name="right-arrow (1)" transform="translate(23.079 25.803)">
        <g id="Group_209" data-name="Group 209">
          <path id="Path_469" data-name="Path 469" d="M18.017,48.251,11.4,41.638a1,1,0,0,0-1.417,0l-.6.6a1,1,0,0,0-.292.709,1.014,1.014,0,0,0,.292.717l3.857,3.866H.989A.978.978,0,0,0,0,48.515v.849a1.015,1.015,0,0,0,.989,1.029h12.3l-3.9,3.887a.992.992,0,0,0,0,1.407l.6.6a1.005,1.005,0,0,0,1.417,0l6.612-6.612a1.011,1.011,0,0,0,0-1.422Z" transform="translate(0 -41.346)" fill="#32325a"/>
        </g>
      </g>
    </g>
    <g id="Next_page_2" data-name="Next page " transform="translate(1542.922 5066)" opacity="0.5">
      <g transform="matrix(1, 0, 0, 1, -29.92, -27)" filter="url(#Ellipse_33-2)">
        <circle id="Ellipse_33-4" data-name="Ellipse 33" cx="33" cy="33" r="33" transform="translate(30 27)" fill="#fff"/>
      </g>
      <g id="right-arrow_1_2" data-name="right-arrow (1)" transform="translate(24.336 25.803)">
        <g id="Group_209-2" data-name="Group 209">
          <path id="Path_469-2" data-name="Path 469" d="M.293,48.251,6.9,41.638a1,1,0,0,1,1.417,0l.6.6a1,1,0,0,1,.292.709,1.014,1.014,0,0,1-.292.717L5.065,47.53H17.32a.978.978,0,0,1,.989.985v.849a1.015,1.015,0,0,1-.989,1.029H5.021l3.9,3.887a.992.992,0,0,1,0,1.407l-.6.6a1.005,1.005,0,0,1-1.417,0L.293,49.673a1.011,1.011,0,0,1,0-1.422Z" transform="translate(0 -41.346)" fill="#32325a"/>
        </g>
      </g>
    </g>
  </g>
</svg>
