<svg xmlns="http://www.w3.org/2000/svg" width="38" height="46" viewBox="0 0 38 46">
  <g id="high-quality-funeral-icon" transform="translate(-5 -1)">
    <rect id="Rectangle_4758" data-name="Rectangle 4758" width="38" height="46" rx="2" transform="translate(5 1)" fill="#fff"/>
    <path id="Path_35621" data-name="Path 35621" d="M28.65,1A94.1,94.1,0,0,1,15.81,47H7a2.006,2.006,0,0,1-2-2V3A2.006,2.006,0,0,1,7,1Z" fill="#fff"/>
    <path id="Path_35622" data-name="Path 35622" d="M43,3V45a2.006,2.006,0,0,1-2,2H35.02V1H41a2.006,2.006,0,0,1,2,2Z" fill="#7576d2"/>
    <path id="Path_35623" data-name="Path 35623" d="M13,1V47H7a2.006,2.006,0,0,1-2-2V3A2.006,2.006,0,0,1,7,1Z" fill="#7576d2"/>
    <rect id="Rectangle_4759" data-name="Rectangle 4759" width="18" height="18" rx="2" transform="translate(15 15)" fill="#fff"/>
    <path id="Path_35624" data-name="Path 35624" d="M27.37,15A92.6,92.6,0,0,1,22.5,33H17a2.006,2.006,0,0,1-2-2V17a2.006,2.006,0,0,1,2-2Z" fill="#fff" opacity="0.1"/>
    <path id="Path_35625" data-name="Path 35625" d="M33,1v9.33C33,11.8,32.1,13,31,13H17c-1.1,0-2-1.2-2-2.67V1Z" fill="#fff"/>
    <path id="Path_35626" data-name="Path 35626" d="M28.65,1a91.324,91.324,0,0,1-.97,12H17c-1.1,0-2-1.2-2-2.67V1Z" fill="#fff"/>
    <path id="Path_35627" data-name="Path 35627" d="M33,37.83V47H15V37.83c0-1.55.9-2.83,2-2.83H31C32.1,35,33,36.28,33,37.83Z" fill="#fff"/>
    <path id="Path_35628" data-name="Path 35628" d="M21.72,35a93.425,93.425,0,0,1-5.91,12H15V37.83c0-1.55.9-2.83,2-2.83Z" fill="#fff"/>
    <path id="Path_35629" data-name="Path 35629" d="M29.61,22.53a3.891,3.891,0,0,1-1.14,2.76l-3.42,3.42a1.5,1.5,0,0,1-2.1,0l-.19-.19-3.23-3.23a3.81,3.81,0,0,1-.32-5.08,3.731,3.731,0,0,1,2.69-1.35,3.848,3.848,0,0,1,2.1.53,3.7,3.7,0,0,1,2.1-.53,3.633,3.633,0,0,1,1.42.36,3.708,3.708,0,0,1,1.27.99,3.636,3.636,0,0,1,.82,2.32Z" fill="#fff" opacity="0.1"/>
    <g id="Group_16713" data-name="Group 16713">
      <rect id="Rectangle_4760" data-name="Rectangle 4760" width="5.139" height="5" rx="1" transform="translate(36.358 3.271)" fill="#f2f2f2"/>
      <rect id="Rectangle_4761" data-name="Rectangle 4761" width="5.139" height="5" rx="1" transform="translate(36.358 10.563)" fill="#f2f2f2"/>
      <rect id="Rectangle_4762" data-name="Rectangle 4762" width="5.139" height="5" rx="1" transform="translate(36.358 17.854)" fill="#f2f2f2"/>
      <rect id="Rectangle_4763" data-name="Rectangle 4763" width="5.139" height="5" rx="1" transform="translate(36.358 25.146)" fill="#f2f2f2"/>
      <rect id="Rectangle_4764" data-name="Rectangle 4764" width="5.139" height="5" rx="1" transform="translate(36.358 32.438)" fill="#f2f2f2"/>
      <rect id="Rectangle_4765" data-name="Rectangle 4765" width="5.139" height="5" rx="1" transform="translate(36.358 39.729)" fill="#f2f2f2"/>
      <rect id="Rectangle_4766" data-name="Rectangle 4766" width="5.139" height="5" rx="1" transform="translate(6.431 3.271)" fill="#f2f2f2"/>
      <rect id="Rectangle_4767" data-name="Rectangle 4767" width="5.139" height="5" rx="1" transform="translate(6.431 10.563)" fill="#f2f2f2"/>
      <rect id="Rectangle_4768" data-name="Rectangle 4768" width="5.139" height="5" rx="1" transform="translate(6.431 17.854)" fill="#f2f2f2"/>
      <rect id="Rectangle_4769" data-name="Rectangle 4769" width="5.139" height="5" rx="1" transform="translate(6.431 25.146)" fill="#f2f2f2"/>
      <rect id="Rectangle_4770" data-name="Rectangle 4770" width="5.139" height="5" rx="1" transform="translate(6.431 32.438)" fill="#f2f2f2"/>
      <rect id="Rectangle_4771" data-name="Rectangle 4771" width="5.139" height="5" rx="1" transform="translate(6.431 39.729)" fill="#f2f2f2"/>
    </g>
    <path id="Path_35630" data-name="Path 35630" d="M27.52,19.22a12.135,12.135,0,0,1-4.76,9.3l-3.23-3.23a3.81,3.81,0,0,1-.32-5.08,3.731,3.731,0,0,1,2.69-1.35,3.848,3.848,0,0,1,2.1.53,3.7,3.7,0,0,1,2.1-.53,3.633,3.633,0,0,1,1.42.36Z" fill="#fff" opacity="0.1"/>
    <path id="Path_35631" data-name="Path 35631" d="M41,47H7a2,2,0,0,1-2-2V3A2,2,0,0,1,7,1H41a2,2,0,0,1,2,2V45A2,2,0,0,1,41,47ZM7,3V45H41V3Z" fill="#32325a"/>
    <path id="Path_35632" data-name="Path 35632" d="M31,13H17a2,2,0,0,1-2-2V2a1,1,0,0,1,1-1H32a1,1,0,0,1,1,1v9a2,2,0,0,1-2,2ZM17,3v8H31V3Z"/>
    <path id="Path_35633" data-name="Path 35633" d="M32,47H16a1,1,0,0,1-1-1V37a2,2,0,0,1,2-2H31a2,2,0,0,1,2,2v9A1,1,0,0,1,32,47ZM17,45H31V37L17,37Z"/>
    <path id="Path_35635" data-name="Path 35635" d="M31,33H17a2,2,0,0,1-2-2V17a2,2,0,0,1,2-2H31a2,2,0,0,1,2,2V31a2,2,0,0,1-2,2ZM17,17V31H31V17Z" fill="#7576d2"/>
    <path id="Path_35636" data-name="Path 35636" d="M31,13H17a2,2,0,0,1-2-2V2a1,1,0,0,1,1-1H32a1,1,0,0,1,1,1v9a2,2,0,0,1-2,2ZM17,3v8H31V3Z" fill="#7576d2"/>
    <path id="Path_35637" data-name="Path 35637" d="M32,47H16a1,1,0,0,1-1-1V37a2,2,0,0,1,2-2H31a2,2,0,0,1,2,2v9A1,1,0,0,1,32,47ZM17,45H31V37L17,37Z" fill="#7576d2"/>
    <path id="Path_35638" data-name="Path 35638" d="M12,47a1,1,0,0,1-1-1V2a1,1,0,0,1,2,0V46A1,1,0,0,1,12,47Z" fill="#32325a"/>
    <path id="Path_35639" data-name="Path 35639" d="M36,47a1,1,0,0,1-1-1V2a1,1,0,0,1,2,0V46A1,1,0,0,1,36,47Z" fill="#32325a"/>
  </g>
</svg>
