<svg xmlns="http://www.w3.org/2000/svg" width="40" height="40" viewBox="0 0 40 40">
  <g id="insta-icon" transform="translate(-1418 -6847)">
    <circle id="Ellipse_14" data-name="Ellipse 14" cx="20" cy="20" r="20" transform="translate(1418 6847)" fill="#fff" opacity="0.1"/>
    <g id="instagram_6_" data-name="instagram (6)" transform="translate(1429.619 6858.619)">
      <g id="Group_104" data-name="Group 104">
        <path id="Path_142" data-name="Path 142" d="M12.571,0H4.19A4.2,4.2,0,0,0,0,4.19v8.381a4.2,4.2,0,0,0,4.19,4.19h8.381a4.2,4.2,0,0,0,4.19-4.19V4.19A4.2,4.2,0,0,0,12.571,0ZM8.381,11.872a3.492,3.492,0,1,1,3.492-3.492A3.492,3.492,0,0,1,8.381,11.872Zm4.54-6.984a1.048,1.048,0,1,1,1.048-1.048A1.047,1.047,0,0,1,12.92,4.889Z" fill="#fff"/>
      </g>
    </g>
  </g>
</svg>
