<svg xmlns="http://www.w3.org/2000/svg" width="53.596" height="38.203" viewBox="0 0 53.596 38.203">
  <path id="NTWicon" d="M186.764,286.855l-.791,2.95L179.5,313.994l-.791,2.95H197.19l.981,4.541.771,3.573,2.428-2.731,4.785-5.382H224.3l.785-2.95,6.431-24.189.785-2.951Zm16.8,26.2-2.357,2.681-.695-3.506.733-2.737,0-.077,3.881-2.193Zm1.981-7.984-3.957,2.236.988-3.69,3.957-2.237Zm14.313,6.192h-3.27V300.57L213.7,311.265h-3.311V295.926H207.91l-.819,3.018-4,2.234,1.423-5.252h-4.142l-4.161,15.339H193.09l-1.246-10.112-2.715,10.112H185.77l4.979-18.584h3.329l1.248,10.2,2.725-10.2h15.585v9l2.434-9h3.024V301.7l2.383-9.016h3.358Z" transform="translate(-178.708 -286.855)" fill="#6e6f6f"/>
</svg>
