<svg xmlns="http://www.w3.org/2000/svg" width="47.52" height="41.142" viewBox="0 0 47.52 41.142">
  <g id="work-video-recording-icon" transform="translate(-1.7 -4.681)">
    <path id="Path_35661" data-name="Path 35661" d="M44.655,22.063a4.265,4.265,0,0,0-2.5.8l-4.969,3.53v-1.13a5.332,5.332,0,0,0-5.332-5.332h-.245a8.531,8.531,0,1,0-11.24,0H15.287a6.4,6.4,0,1,0-9.331.2A5.332,5.332,0,0,0,2,25.262V40.191a5.332,5.332,0,0,0,5.332,5.332H31.858a5.332,5.332,0,0,0,5.332-5.332v-1.13l4.937,3.53a4.265,4.265,0,0,0,6.793-3.466v-12.8A4.265,4.265,0,0,0,44.655,22.063ZM19.6,13.532a6.4,6.4,0,1,1,6.4,6.4A6.4,6.4,0,0,1,19.6,13.532ZM10.531,11.4a4.265,4.265,0,1,1-4.265,4.265A4.265,4.265,0,0,1,10.531,11.4ZM35.057,40.191a3.2,3.2,0,0,1-3.2,3.2H7.332a3.2,3.2,0,0,1-3.2-3.2V25.262a3.2,3.2,0,0,1,3.2-3.2H31.858a3.2,3.2,0,0,1,3.2,3.2Zm11.73-1.066a2.133,2.133,0,0,1-3.423,1.76L37.19,36.448V28.984l6.174-4.4a2.133,2.133,0,0,1,3.423,1.749Z" transform="translate(0 0)" fill="#7576d2" stroke="#7475d1" stroke-width="0.6"/>
  </g>
</svg>
